<?xml version="1.0" encoding="iso-8859-1"?>
<!-- Generator: Adobe Illustrator 18.0.0, SVG Export Plug-In . SVG Version: 6.00 Build 0)  -->
<!DOCTYPE svg PUBLIC "-//W3C//DTD SVG 1.1//EN" "http://www.w3.org/Graphics/SVG/1.1/DTD/svg11.dtd">
<svg version="1.1" id="Capa_1" xmlns="http://www.w3.org/2000/svg" xmlns:xlink="http://www.w3.org/1999/xlink" x="0px" y="0px"
	 viewBox="0 0 486.514 486.514" style="enable-background:new 0 0 486.514 486.514;" xml:space="preserve">
<g>
	<path d="M484.809,70.037c-1.073-0.802-2.462-1.052-3.745-0.674c-53.777,15.825-142.677,25.273-237.807,25.273
		c-95.131,0-184.031-9.448-237.809-25.273c-1.284-0.378-2.673-0.128-3.745,0.674C0.631,70.84,0,72.101,0,73.44v302.098
		c0,1.339,0.631,2.6,1.704,3.403c1.072,0.802,2.461,1.052,3.745,0.674c36.916-10.863,90.385-18.72,151.058-22.58v42.466
		c-19.153,2.408-35.97,5.616-49.149,9.495c-2.252,0.663-3.54,3.025-2.878,5.277c0.663,2.253,3.027,3.538,5.277,2.878
		c30.146-8.872,80.053-14.168,133.5-14.168s103.353,5.296,133.5,14.168c0.4,0.118,0.805,0.174,1.202,0.174
		c1.836,0,3.53-1.2,4.075-3.051c0.662-2.251-0.626-4.614-2.878-5.277c-13.18-3.878-29.996-7.087-49.149-9.495v-42.466
		c60.673,3.859,114.142,11.717,151.058,22.58c0.394,0.116,0.798,0.173,1.199,0.173c0.907,0,1.803-0.291,2.546-0.847
		c1.073-0.803,1.704-2.064,1.704-3.403V73.44C486.514,72.101,485.883,70.84,484.809,70.037z M321.507,398.502
		c-23.725-2.6-50.538-4.021-78.25-4.021c-27.712,0-54.525,1.421-78.25,4.021v-41.979c25.159-1.431,51.457-2.18,78.251-2.18
		c26.792,0,53.09,0.75,78.249,2.18V398.502z M243.258,345.842c-92.768,0-179.827,8.962-234.758,24.068V79.067
		c54.932,15.106,141.991,24.069,234.758,24.069c92.766,0,179.824-8.962,234.756-24.069v30.862
		c-15.346,4.342-33.575,8.237-54.248,11.589c-2.317,0.376-3.891,2.559-3.516,4.875c0.339,2.087,2.142,3.57,4.19,3.57
		c0.226,0,0.455-0.018,0.685-0.055c19.97-3.238,37.723-6.986,52.888-11.158v217.146c-54.93-15.107-141.986-24.07-234.756-24.07
		c-2.348,0-4.25,1.903-4.25,4.25c0,2.347,1.902,4.25,4.25,4.25c93.367,0,180.709,9.105,234.756,24.404v25.181
		C423.083,354.805,336.024,345.842,243.258,345.842z"/>
	<path d="M320.78,140.703c0.08,0,0.161-0.002,0.242-0.007c21.588-1.209,42.51-2.931,62.184-5.119
		c2.333-0.26,4.014-2.361,3.754-4.694c-0.26-2.333-2.355-4.015-4.693-3.754c-19.52,2.171-40.285,3.88-61.72,5.08
		c-2.344,0.131-4.137,2.137-4.006,4.481C316.668,138.954,318.542,140.703,320.78,140.703z"/>
	<path d="M34.413,161.474c1.088,0,2.175-0.415,3.005-1.245l36.884-36.884c1.66-1.66,1.66-4.351,0-6.011
		c-1.66-1.659-4.351-1.659-6.011,0l-36.884,36.884c-1.659,1.66-1.659,4.351,0,6.011C32.237,161.059,33.325,161.474,34.413,161.474z"
		/>
	<path d="M34.413,210.369c1.088,0,2.175-0.415,3.005-1.245l85.779-85.779c1.659-1.66,1.659-4.351,0-6.011
		c-1.66-1.659-4.351-1.659-6.011,0l-85.779,85.779c-1.659,1.66-1.659,4.351,0,6.011C32.237,209.954,33.325,210.369,34.413,210.369z"
		/>
	<path d="M166.079,117.335L31.407,252.007c-1.659,1.66-1.659,4.351,0,6.011c0.83,0.83,1.918,1.245,3.006,1.245
		c1.088,0,2.175-0.415,3.005-1.245L172.09,123.345c1.659-1.66,1.659-4.351,0-6.011C170.43,115.676,167.739,115.676,166.079,117.335z
		"/>
</g>
<g>
</g>
<g>
</g>
<g>
</g>
<g>
</g>
<g>
</g>
<g>
</g>
<g>
</g>
<g>
</g>
<g>
</g>
<g>
</g>
<g>
</g>
<g>
</g>
<g>
</g>
<g>
</g>
<g>
</g>
</svg>
